<?xml version="1.0" encoding="iso-8859-1"?>
<!-- Generator: Adobe Illustrator 19.1.0, SVG Export Plug-In . SVG Version: 6.00 Build 0)  -->
<svg version="1.1" id="Capa_1" xmlns="http://www.w3.org/2000/svg" xmlns:xlink="http://www.w3.org/1999/xlink" x="0px" y="0px"
	 viewBox="0 0 64.754 64.754" style="enable-background:new 0 0 64.754 64.754;" xml:space="preserve">
<g>
	<g id="group-73svg">
		<path id="path-1_69_" d="M52.942,64.754c-0.828,0-1.5-0.672-1.5-1.5c0-9.578-7.793-17.371-17.371-17.371
			c-9.579,0-17.372,7.793-17.372,17.371c0,0.828-0.672,1.5-1.5,1.5s-1.5-0.672-1.5-1.5c0-11.233,9.139-20.371,20.372-20.371
			s20.371,9.138,20.371,20.371C54.442,64.082,53.771,64.754,52.942,64.754z"/>
		<path id="path-2_69_" d="M34.071,45.322c-6.516,0-11.817-5.301-11.817-11.816c0-6.516,5.301-11.817,11.817-11.817
			s11.817,5.301,11.817,11.817C45.888,40.021,40.587,45.322,34.071,45.322z M34.071,24.689c-4.862,0-8.817,3.955-8.817,8.817
			c0,4.861,3.955,8.816,8.817,8.816s8.817-3.955,8.817-8.816C42.888,28.644,38.933,24.689,34.071,24.689z"/>
		<path id="path-3_57_" d="M13.074,61H1.753c-0.828,0-1.5-0.672-1.5-1.5c0-9.745,7.295-17.094,16.97-17.094
			c3.087,0,5.998,0.779,8.652,2.315c0.717,0.414,0.962,1.332,0.548,2.048c-0.415,0.718-1.333,0.962-2.05,0.547
			c-2.191-1.267-4.598-1.91-7.15-1.91C9.762,45.406,4.02,50.723,3.324,58h9.75c0.828,0,1.5,0.672,1.5,1.5S13.902,61,13.074,61z"/>
		<path id="path-4_36_" d="M17.348,44.739c-5.529,0-10.026-4.497-10.026-10.024c0-5.529,4.497-10.026,10.026-10.026
			c2.677,0,5.195,1.043,7.088,2.936c0.586,0.586,0.586,1.536,0,2.121c-0.585,0.586-1.535,0.586-2.121,0
			c-1.327-1.326-3.09-2.057-4.967-2.057c-3.874,0-7.026,3.151-7.026,7.026c0,3.873,3.152,7.024,7.026,7.024
			c2.303,0,4.463-1.132,5.778-3.028c0.472-0.681,1.406-0.85,2.087-0.377s0.85,1.406,0.378,2.088
			C23.716,43.125,20.634,44.739,17.348,44.739z"/>
		<path id="path-5_19_" d="M61.336,61h-8.262c-0.828,0-1.5-0.672-1.5-1.5s0.672-1.5,1.5-1.5h6.68
			c-0.715-6.481-5.986-11.872-12.588-12.586c-0.735-0.08-1.304-0.684-1.337-1.424c-0.034-0.738,0.476-1.392,1.201-1.538
			c3.292-0.665,5.681-3.579,5.681-6.93c0-3.774-3.585-7.087-7.671-7.087c-0.828,0-1.5-0.67-1.5-1.499c0-0.829,0.672-1.501,1.5-1.501
			c5.784,0,10.671,4.62,10.671,10.087c0,3.18-1.509,6.083-3.901,7.947c6.511,2.488,11.026,8.765,11.026,16.031
			C62.836,60.328,62.164,61,61.336,61z"/>
		<path id="path-6_5_" d="M45.54,26.387c-0.161,0-0.324-0.027-0.482-0.08c-0.61-0.207-1.019-0.78-1.018-1.422l0.014-8.862
			c-0.004-0.394-0.008-2.295-0.014-12.478C44.04,1.656,45.58,0,47.336,0h13.919c1.686,0,3.246,1.524,3.246,3.793v12.123
			c0,2.946-2.368,5.084-5.042,5.084h-9.051l-3.678,4.799C46.441,26.176,45.997,26.387,45.54,26.387z M47.336,3
			c-0.084,0.029-0.296,0.303-0.296,0.545c0.002,3.351,0.008,12.124,0.013,12.449l-0.007,4.461l1.432-1.867
			C48.762,18.217,49.201,18,49.668,18h9.791c1.499,0,2.042-1.595,2.042-2.084V3.793c0-0.355-0.483-0.629-0.538-0.793H47.336z"/>
		<path id="path-7_2_" d="M57.001,13.5c-0.828,0-1.5-0.672-1.5-1.5V9c0-0.828,0.672-1.5,1.5-1.5s1.5,0.672,1.5,1.5v3
			C58.501,12.828,57.829,13.5,57.001,13.5z"/>
		<path id="path-8" d="M51.001,13.5c-0.828,0-1.5-0.672-1.5-1.5V9c0-0.828,0.672-1.5,1.5-1.5s1.5,0.672,1.5,1.5v3
			C52.501,12.828,51.829,13.5,51.001,13.5z"/>
	</g>
</g>
<g>
</g>
<g>
</g>
<g>
</g>
<g>
</g>
<g>
</g>
<g>
</g>
<g>
</g>
<g>
</g>
<g>
</g>
<g>
</g>
<g>
</g>
<g>
</g>
<g>
</g>
<g>
</g>
<g>
</g>
</svg>
